<mxfile host="app.diagrams.net" modified="2021-04-27T19:30:43.643Z" agent="5.0 (Windows NT 10.0; Win64; x64) AppleWebKit/537.36 (KHTML, like Gecko) Chrome/90.0.4430.93 Safari/537.36" etag="hXPzjftxyr7NLaacnpnX" version="14.6.6" type="github">
  <diagram id="aJBuOI1GWzpMyhJK2BpH" name="Page-1">
    <mxGraphModel dx="1038" dy="580" grid="1" gridSize="10" guides="1" tooltips="1" connect="1" arrows="1" fold="1" page="1" pageScale="1" pageWidth="850" pageHeight="1100" math="0" shadow="0">
      <root>
        <mxCell id="0" />
        <mxCell id="1" parent="0" />
        <mxCell id="V9r57XBYMyIFjuuc4Z4z-39" style="edgeStyle=orthogonalEdgeStyle;rounded=0;orthogonalLoop=1;jettySize=auto;html=1;exitX=1;exitY=0.5;exitDx=0;exitDy=0;entryX=0;entryY=0.5;entryDx=0;entryDy=0;" edge="1" parent="1" source="c_Kaz1U0MEZfS42UwjgD-1" target="c_Kaz1U0MEZfS42UwjgD-5">
          <mxGeometry relative="1" as="geometry" />
        </mxCell>
        <mxCell id="V9r57XBYMyIFjuuc4Z4z-42" style="edgeStyle=orthogonalEdgeStyle;rounded=0;orthogonalLoop=1;jettySize=auto;html=1;exitX=0.5;exitY=1;exitDx=0;exitDy=0;entryX=0.5;entryY=0;entryDx=0;entryDy=0;" edge="1" parent="1" source="c_Kaz1U0MEZfS42UwjgD-1" target="V9r57XBYMyIFjuuc4Z4z-31">
          <mxGeometry relative="1" as="geometry" />
        </mxCell>
        <mxCell id="c_Kaz1U0MEZfS42UwjgD-1" value="User&lt;br&gt;&lt;div style=&quot;text-align: left&quot;&gt;&lt;span&gt;+username&lt;/span&gt;&lt;/div&gt;&lt;div style=&quot;text-align: left&quot;&gt;&lt;span&gt;+password&lt;/span&gt;&lt;/div&gt;&lt;div style=&quot;text-align: left&quot;&gt;&lt;span&gt;+email&lt;/span&gt;&lt;/div&gt;&lt;div style=&quot;text-align: left&quot;&gt;&lt;span&gt;+phoneNumber&lt;/span&gt;&lt;/div&gt;&lt;div style=&quot;text-align: left&quot;&gt;&lt;span&gt;+firstName&lt;/span&gt;&lt;/div&gt;&lt;div style=&quot;text-align: left&quot;&gt;&lt;span&gt;+lastName&lt;/span&gt;&lt;/div&gt;&lt;div style=&quot;text-align: left&quot;&gt;&lt;span&gt;+gender&lt;/span&gt;&lt;/div&gt;&lt;div style=&quot;text-align: left&quot;&gt;&lt;span&gt;+dateOfBirth&lt;/span&gt;&lt;/div&gt;&lt;div style=&quot;text-align: left&quot;&gt;&lt;span&gt;+website&lt;/span&gt;&lt;/div&gt;&lt;div style=&quot;text-align: left&quot;&gt;&lt;span&gt;+biography&lt;br&gt;&lt;/span&gt;&lt;/div&gt;" style="whiteSpace=wrap;html=1;aspect=fixed;" parent="1" vertex="1">
          <mxGeometry x="80" y="15" width="180" height="180" as="geometry" />
        </mxCell>
        <mxCell id="c_Kaz1U0MEZfS42UwjgD-3" value="Agent&lt;br&gt;..." style="whiteSpace=wrap;html=1;aspect=fixed;" parent="1" vertex="1">
          <mxGeometry x="20" y="370" width="80" height="80" as="geometry" />
        </mxCell>
        <mxCell id="c_Kaz1U0MEZfS42UwjgD-4" value="ClassicUser&lt;br&gt;&lt;div style=&quot;text-align: left&quot;&gt;&lt;span&gt;+List&amp;lt;Story&amp;gt;&lt;/span&gt;&lt;/div&gt;&lt;div style=&quot;text-align: left&quot;&gt;&lt;span&gt;+List&amp;lt;StoryHighlight&amp;gt;&lt;/span&gt;&lt;/div&gt;&lt;div style=&quot;text-align: left&quot;&gt;&lt;span&gt;+List&amp;lt;Post&amp;gt;&lt;/span&gt;&lt;/div&gt;&lt;div style=&quot;text-align: left&quot;&gt;&lt;span&gt;+List&amp;lt;PostCollection&amp;gt;&lt;/span&gt;&lt;/div&gt;&lt;div style=&quot;text-align: left&quot;&gt;&lt;span&gt;+List&amp;lt;Activity&amp;gt;&lt;/span&gt;&lt;/div&gt;&lt;div style=&quot;text-align: left&quot;&gt;+List&amp;lt;Comment&amp;gt;&lt;span&gt;&lt;br&gt;&lt;/span&gt;&lt;/div&gt;&lt;div style=&quot;text-align: left&quot;&gt;&lt;span&gt;+isBlocked&lt;/span&gt;&lt;/div&gt;&lt;div style=&quot;text-align: left&quot;&gt;&lt;span&gt;+categoryOfUser&lt;/span&gt;&lt;/div&gt;&lt;div style=&quot;text-align: left&quot;&gt;+officialDocumentPath&lt;/div&gt;" style="whiteSpace=wrap;html=1;aspect=fixed;" parent="1" vertex="1">
          <mxGeometry x="170" y="350" width="190" height="190" as="geometry" />
        </mxCell>
        <mxCell id="c_Kaz1U0MEZfS42UwjgD-5" value="Admin&lt;br&gt;..." style="whiteSpace=wrap;html=1;aspect=fixed;" parent="1" vertex="1">
          <mxGeometry x="330" y="80" width="80" height="80" as="geometry" />
        </mxCell>
        <mxCell id="c_Kaz1U0MEZfS42UwjgD-6" style="edgeStyle=orthogonalEdgeStyle;rounded=0;orthogonalLoop=1;jettySize=auto;html=1;exitX=0.5;exitY=1;exitDx=0;exitDy=0;" parent="1" source="c_Kaz1U0MEZfS42UwjgD-3" target="c_Kaz1U0MEZfS42UwjgD-3" edge="1">
          <mxGeometry relative="1" as="geometry" />
        </mxCell>
        <mxCell id="c_Kaz1U0MEZfS42UwjgD-12" value="VisibilityOfUser&lt;br&gt;PRIVATE&lt;br&gt;PUBLIC" style="whiteSpace=wrap;html=1;aspect=fixed;" parent="1" vertex="1">
          <mxGeometry x="450" y="70" width="100" height="100" as="geometry" />
        </mxCell>
        <mxCell id="c_Kaz1U0MEZfS42UwjgD-15" value="StoryAlbum&lt;br&gt;+List&amp;lt;Content&amp;gt;" style="whiteSpace=wrap;html=1;aspect=fixed;" parent="1" vertex="1">
          <mxGeometry x="180" y="1170" width="80" height="80" as="geometry" />
        </mxCell>
        <mxCell id="c_Kaz1U0MEZfS42UwjgD-16" value="PostAlbum&lt;br&gt;+List&amp;lt;Content&amp;gt;" style="whiteSpace=wrap;html=1;aspect=fixed;" parent="1" vertex="1">
          <mxGeometry x="495" y="675" width="80" height="80" as="geometry" />
        </mxCell>
        <mxCell id="c_Kaz1U0MEZfS42UwjgD-33" style="edgeStyle=orthogonalEdgeStyle;rounded=0;orthogonalLoop=1;jettySize=auto;html=1;exitX=0;exitY=0.5;exitDx=0;exitDy=0;entryX=0.5;entryY=0;entryDx=0;entryDy=0;" parent="1" source="c_Kaz1U0MEZfS42UwjgD-17" target="c_Kaz1U0MEZfS42UwjgD-29" edge="1">
          <mxGeometry relative="1" as="geometry" />
        </mxCell>
        <mxCell id="c_Kaz1U0MEZfS42UwjgD-36" style="edgeStyle=orthogonalEdgeStyle;rounded=0;orthogonalLoop=1;jettySize=auto;html=1;exitX=1;exitY=0.5;exitDx=0;exitDy=0;" parent="1" source="c_Kaz1U0MEZfS42UwjgD-17" target="c_Kaz1U0MEZfS42UwjgD-15" edge="1">
          <mxGeometry relative="1" as="geometry" />
        </mxCell>
        <mxCell id="c_Kaz1U0MEZfS42UwjgD-17" value="Story&lt;br&gt;&lt;div style=&quot;text-align: left&quot;&gt;&lt;span&gt;+creationDate&lt;/span&gt;&lt;/div&gt;&lt;div style=&quot;text-align: left&quot;&gt;&lt;span&gt;+user&lt;/span&gt;&lt;/div&gt;&lt;div style=&quot;text-align: left&quot;&gt;&lt;span&gt;+storyType&lt;/span&gt;&lt;/div&gt;&lt;div style=&quot;text-align: left&quot;&gt;&lt;span&gt;+location&lt;br&gt;+isDeleted&lt;br&gt;+List&amp;lt;StoryICR&amp;gt;&lt;/span&gt;&lt;/div&gt;&lt;div style=&quot;text-align: left&quot;&gt;&lt;span&gt;&lt;br&gt;&lt;/span&gt;&lt;/div&gt;" style="whiteSpace=wrap;html=1;aspect=fixed;" parent="1" vertex="1">
          <mxGeometry x="90" y="1050" width="100" height="100" as="geometry" />
        </mxCell>
        <mxCell id="c_Kaz1U0MEZfS42UwjgD-21" value="Activity&lt;br&gt;&lt;div style=&quot;text-align: left&quot;&gt;&lt;span&gt;+liked&lt;/span&gt;&lt;/div&gt;&lt;div style=&quot;text-align: left&quot;&gt;&lt;span&gt;+postId&lt;/span&gt;&lt;br&gt;&lt;/div&gt;&lt;div style=&quot;text-align: left&quot;&gt;&lt;span&gt;+userId&lt;/span&gt;&lt;/div&gt;&lt;div style=&quot;text-align: left&quot;&gt;&lt;span&gt;+favorited&lt;/span&gt;&lt;/div&gt;" style="whiteSpace=wrap;html=1;aspect=fixed;" parent="1" vertex="1">
          <mxGeometry x="440" y="250" width="100" height="100" as="geometry" />
        </mxCell>
        <mxCell id="c_Kaz1U0MEZfS42UwjgD-27" style="edgeStyle=orthogonalEdgeStyle;rounded=0;orthogonalLoop=1;jettySize=auto;html=1;exitX=0;exitY=0.5;exitDx=0;exitDy=0;entryX=0.25;entryY=0;entryDx=0;entryDy=0;" parent="1" source="c_Kaz1U0MEZfS42UwjgD-22" target="c_Kaz1U0MEZfS42UwjgD-23" edge="1">
          <mxGeometry relative="1" as="geometry" />
        </mxCell>
        <mxCell id="c_Kaz1U0MEZfS42UwjgD-28" style="edgeStyle=orthogonalEdgeStyle;rounded=0;orthogonalLoop=1;jettySize=auto;html=1;exitX=1;exitY=0.5;exitDx=0;exitDy=0;entryX=0.75;entryY=0;entryDx=0;entryDy=0;" parent="1" source="c_Kaz1U0MEZfS42UwjgD-22" target="c_Kaz1U0MEZfS42UwjgD-16" edge="1">
          <mxGeometry relative="1" as="geometry" />
        </mxCell>
        <mxCell id="c_Kaz1U0MEZfS42UwjgD-22" value="Post&lt;br&gt;&lt;div style=&quot;text-align: left&quot;&gt;&lt;span&gt;+creationDate&lt;/span&gt;&lt;/div&gt;&lt;div style=&quot;text-align: left&quot;&gt;&lt;span&gt;+description&lt;/span&gt;&lt;/div&gt;&lt;div style=&quot;text-align: left&quot;&gt;&lt;span&gt;+user&lt;/span&gt;&lt;/div&gt;&lt;div style=&quot;text-align: left&quot;&gt;+List&amp;lt;Activity&amp;gt;&lt;span&gt;&lt;br&gt;&lt;/span&gt;&lt;/div&gt;&lt;div style=&quot;text-align: left&quot;&gt;+List&amp;lt;Comment&amp;gt;&lt;br&gt;&lt;/div&gt;&lt;div style=&quot;text-align: left&quot;&gt;+location&lt;br&gt;+isDeleted&lt;/div&gt;&lt;div style=&quot;text-align: left&quot;&gt;+List&amp;lt;PostICR&amp;gt;&lt;/div&gt;&lt;div style=&quot;text-align: left&quot;&gt;&lt;br&gt;&lt;/div&gt;" style="whiteSpace=wrap;html=1;aspect=fixed;" parent="1" vertex="1">
          <mxGeometry x="385" y="500" width="145" height="145" as="geometry" />
        </mxCell>
        <mxCell id="c_Kaz1U0MEZfS42UwjgD-23" value="SinglePost&lt;br&gt;+content" style="whiteSpace=wrap;html=1;aspect=fixed;" parent="1" vertex="1">
          <mxGeometry x="330" y="675" width="80" height="80" as="geometry" />
        </mxCell>
        <mxCell id="c_Kaz1U0MEZfS42UwjgD-29" value="SingleStory&lt;br&gt;+content" style="whiteSpace=wrap;html=1;aspect=fixed;" parent="1" vertex="1">
          <mxGeometry x="30" y="1170" width="80" height="80" as="geometry" />
        </mxCell>
        <mxCell id="c_Kaz1U0MEZfS42UwjgD-37" value="ContentType&lt;br&gt;PICTURE&lt;br&gt;VIDEO" style="whiteSpace=wrap;html=1;aspect=fixed;" parent="1" vertex="1">
          <mxGeometry x="235" y="810" width="80" height="80" as="geometry" />
        </mxCell>
        <mxCell id="V9r57XBYMyIFjuuc4Z4z-16" style="edgeStyle=orthogonalEdgeStyle;rounded=0;orthogonalLoop=1;jettySize=auto;html=1;exitX=0;exitY=0.5;exitDx=0;exitDy=0;" edge="1" parent="1" source="c_Kaz1U0MEZfS42UwjgD-38" target="V9r57XBYMyIFjuuc4Z4z-12">
          <mxGeometry relative="1" as="geometry" />
        </mxCell>
        <mxCell id="c_Kaz1U0MEZfS42UwjgD-38" value="Content&lt;br&gt;&lt;div style=&quot;text-align: left&quot;&gt;&lt;span&gt;+contentType&lt;/span&gt;&lt;/div&gt;&lt;div style=&quot;text-align: left&quot;&gt;&lt;span&gt;+path&lt;/span&gt;&lt;/div&gt;" style="whiteSpace=wrap;html=1;aspect=fixed;" parent="1" vertex="1">
          <mxGeometry x="1285" y="830" width="80" height="80" as="geometry" />
        </mxCell>
        <mxCell id="c_Kaz1U0MEZfS42UwjgD-39" value="PostCollection&lt;br&gt;&lt;div style=&quot;text-align: left&quot;&gt;&lt;span&gt;+List&amp;lt;SinglePost&amp;gt;&lt;/span&gt;&lt;/div&gt;&lt;div style=&quot;text-align: left&quot;&gt;&lt;span&gt;+user&lt;/span&gt;&lt;/div&gt;&lt;div style=&quot;text-align: left&quot;&gt;&lt;span&gt;+title&lt;/span&gt;&lt;/div&gt;" style="whiteSpace=wrap;html=1;aspect=fixed;" parent="1" vertex="1">
          <mxGeometry x="340" y="800" width="100" height="100" as="geometry" />
        </mxCell>
        <mxCell id="c_Kaz1U0MEZfS42UwjgD-40" value="StoryType&lt;br&gt;CLOSE_FRIENDS_ONLY&lt;br&gt;ALL_FRIENDS&lt;br&gt;PUBLIC" style="whiteSpace=wrap;html=1;aspect=fixed;" parent="1" vertex="1">
          <mxGeometry x="70" y="1300" width="140" height="140" as="geometry" />
        </mxCell>
        <mxCell id="MEC5jKvMAZbjHjUdtJt9-8" style="edgeStyle=orthogonalEdgeStyle;rounded=0;orthogonalLoop=1;jettySize=auto;html=1;exitX=0;exitY=0.5;exitDx=0;exitDy=0;entryX=0.5;entryY=0;entryDx=0;entryDy=0;" parent="1" source="c_Kaz1U0MEZfS42UwjgD-45" target="MEC5jKvMAZbjHjUdtJt9-7" edge="1">
          <mxGeometry relative="1" as="geometry" />
        </mxCell>
        <mxCell id="MEC5jKvMAZbjHjUdtJt9-9" style="edgeStyle=orthogonalEdgeStyle;rounded=0;orthogonalLoop=1;jettySize=auto;html=1;exitX=1;exitY=0.5;exitDx=0;exitDy=0;entryX=0.5;entryY=0;entryDx=0;entryDy=0;" parent="1" source="c_Kaz1U0MEZfS42UwjgD-45" target="MEC5jKvMAZbjHjUdtJt9-6" edge="1">
          <mxGeometry relative="1" as="geometry" />
        </mxCell>
        <mxCell id="MEC5jKvMAZbjHjUdtJt9-13" style="edgeStyle=orthogonalEdgeStyle;rounded=0;orthogonalLoop=1;jettySize=auto;html=1;exitX=0.5;exitY=1;exitDx=0;exitDy=0;entryX=0.431;entryY=-0.024;entryDx=0;entryDy=0;entryPerimeter=0;" parent="1" source="c_Kaz1U0MEZfS42UwjgD-45" target="MEC5jKvMAZbjHjUdtJt9-12" edge="1">
          <mxGeometry relative="1" as="geometry" />
        </mxCell>
        <mxCell id="c_Kaz1U0MEZfS42UwjgD-45" value="Tag&lt;br&gt;&lt;div style=&quot;text-align: left&quot;&gt;&lt;span&gt;+name&lt;/span&gt;&lt;/div&gt;" style="whiteSpace=wrap;html=1;aspect=fixed;" parent="1" vertex="1">
          <mxGeometry x="700" y="440" width="80" height="80" as="geometry" />
        </mxCell>
        <mxCell id="c_Kaz1U0MEZfS42UwjgD-46" value="StoryHighlight&lt;br&gt;&lt;div style=&quot;text-align: left&quot;&gt;&lt;span&gt;+List&amp;lt;SingleStory&amp;gt;&lt;/span&gt;&lt;/div&gt;&lt;div style=&quot;text-align: left&quot;&gt;&lt;span&gt;+user&lt;/span&gt;&lt;/div&gt;&lt;div style=&quot;text-align: left&quot;&gt;&lt;span&gt;+title&lt;/span&gt;&lt;/div&gt;" style="whiteSpace=wrap;html=1;aspect=fixed;" parent="1" vertex="1">
          <mxGeometry x="85" y="930" width="110" height="110" as="geometry" />
        </mxCell>
        <mxCell id="MEC5jKvMAZbjHjUdtJt9-2" value="Location&lt;br&gt;+streetName&lt;br&gt;+streetNumber&lt;br&gt;+city&lt;br&gt;+country&lt;br&gt;+latitude&lt;br&gt;+longitude" style="whiteSpace=wrap;html=1;aspect=fixed;" parent="1" vertex="1">
          <mxGeometry x="480" y="800" width="130" height="130" as="geometry" />
        </mxCell>
        <mxCell id="MEC5jKvMAZbjHjUdtJt9-3" value="CategoryOfUser&lt;br&gt;Influencer&lt;br&gt;Sports&lt;br&gt;New/media&lt;br&gt;Business&lt;br&gt;Brand&lt;br&gt;Organization" style="whiteSpace=wrap;html=1;aspect=fixed;" parent="1" vertex="1">
          <mxGeometry x="650" y="45" width="150" height="150" as="geometry" />
        </mxCell>
        <mxCell id="MEC5jKvMAZbjHjUdtJt9-4" value="ProfileSettings&lt;br&gt;&lt;span style=&quot;text-align: left&quot;&gt;+userId&lt;br&gt;+visibilityOfUser&lt;br&gt;&lt;/span&gt;+messageApproval&lt;br&gt;+List&amp;lt;User&amp;gt; mutedProfiles&lt;br&gt;+List&amp;lt;User&amp;gt; blockedProfiles" style="whiteSpace=wrap;html=1;aspect=fixed;" parent="1" vertex="1">
          <mxGeometry x="570" y="250" width="160" height="160" as="geometry" />
        </mxCell>
        <mxCell id="MEC5jKvMAZbjHjUdtJt9-5" value="MessageApprovalType&lt;br&gt;FOR_PUBLIC&lt;br&gt;FOR_FRIENDS_ONLY" style="whiteSpace=wrap;html=1;aspect=fixed;" parent="1" vertex="1">
          <mxGeometry x="770" y="260" width="130" height="130" as="geometry" />
        </mxCell>
        <mxCell id="MEC5jKvMAZbjHjUdtJt9-6" value="PostTag&lt;br&gt;+List&amp;lt;Post&amp;gt;" style="whiteSpace=wrap;html=1;aspect=fixed;" parent="1" vertex="1">
          <mxGeometry x="810" y="550" width="90" height="90" as="geometry" />
        </mxCell>
        <mxCell id="MEC5jKvMAZbjHjUdtJt9-7" value="StoryTag&lt;br&gt;+List&amp;lt;Story&amp;gt;" style="whiteSpace=wrap;html=1;aspect=fixed;" parent="1" vertex="1">
          <mxGeometry x="590" y="550" width="90" height="90" as="geometry" />
        </mxCell>
        <mxCell id="MEC5jKvMAZbjHjUdtJt9-11" value="Comment&lt;br&gt;+text&lt;br&gt;+creationDate&lt;br&gt;+userId&lt;br&gt;+postId&lt;br&gt;+List&amp;lt;CommentICR&amp;gt;&lt;br&gt;" style="whiteSpace=wrap;html=1;aspect=fixed;" parent="1" vertex="1">
          <mxGeometry x="410" y="380" width="110" height="110" as="geometry" />
        </mxCell>
        <mxCell id="MEC5jKvMAZbjHjUdtJt9-12" value="CommentTag&lt;br&gt;+List&amp;lt;Comment&amp;gt;" style="whiteSpace=wrap;html=1;aspect=fixed;" parent="1" vertex="1">
          <mxGeometry x="700" y="550" width="90" height="90" as="geometry" />
        </mxCell>
        <mxCell id="MEC5jKvMAZbjHjUdtJt9-20" value="ICR - InappropriateContentRequest" style="rounded=0;whiteSpace=wrap;html=1;align=center;" parent="1" vertex="1">
          <mxGeometry x="1000" y="675" width="120" height="60" as="geometry" />
        </mxCell>
        <mxCell id="V9r57XBYMyIFjuuc4Z4z-1" style="edgeStyle=orthogonalEdgeStyle;rounded=0;orthogonalLoop=1;jettySize=auto;html=1;exitX=0;exitY=0.5;exitDx=0;exitDy=0;entryX=0.25;entryY=0;entryDx=0;entryDy=0;" edge="1" parent="1" source="MEC5jKvMAZbjHjUdtJt9-27" target="MEC5jKvMAZbjHjUdtJt9-45">
          <mxGeometry relative="1" as="geometry" />
        </mxCell>
        <mxCell id="V9r57XBYMyIFjuuc4Z4z-2" style="edgeStyle=orthogonalEdgeStyle;rounded=0;orthogonalLoop=1;jettySize=auto;html=1;exitX=0.5;exitY=1;exitDx=0;exitDy=0;entryX=0.083;entryY=0.035;entryDx=0;entryDy=0;entryPerimeter=0;" edge="1" parent="1" source="MEC5jKvMAZbjHjUdtJt9-27" target="MEC5jKvMAZbjHjUdtJt9-49">
          <mxGeometry relative="1" as="geometry" />
        </mxCell>
        <mxCell id="V9r57XBYMyIFjuuc4Z4z-3" style="edgeStyle=orthogonalEdgeStyle;rounded=0;orthogonalLoop=1;jettySize=auto;html=1;exitX=1;exitY=0.5;exitDx=0;exitDy=0;entryX=0.557;entryY=-0.012;entryDx=0;entryDy=0;entryPerimeter=0;" edge="1" parent="1" source="MEC5jKvMAZbjHjUdtJt9-27" target="MEC5jKvMAZbjHjUdtJt9-53">
          <mxGeometry relative="1" as="geometry" />
        </mxCell>
        <mxCell id="MEC5jKvMAZbjHjUdtJt9-27" value="InappropriateContentRequest" style="swimlane;fontStyle=0;childLayout=stackLayout;horizontal=1;startSize=26;fillColor=none;horizontalStack=0;resizeParent=1;resizeParentMax=0;resizeLast=0;collapsible=1;marginBottom=0;align=center;" parent="1" vertex="1" collapsed="1">
          <mxGeometry x="720" y="730" width="190" height="26" as="geometry">
            <mxRectangle x="720" y="730" width="190" height="78" as="alternateBounds" />
          </mxGeometry>
        </mxCell>
        <mxCell id="MEC5jKvMAZbjHjUdtJt9-28" value="+note" style="text;strokeColor=none;fillColor=none;align=left;verticalAlign=top;spacingLeft=4;spacingRight=4;overflow=hidden;rotatable=0;points=[[0,0.5],[1,0.5]];portConstraint=eastwest;" parent="MEC5jKvMAZbjHjUdtJt9-27" vertex="1">
          <mxGeometry y="26" width="190" height="26" as="geometry" />
        </mxCell>
        <mxCell id="MEC5jKvMAZbjHjUdtJt9-29" value="+userId" style="text;strokeColor=none;fillColor=none;align=left;verticalAlign=top;spacingLeft=4;spacingRight=4;overflow=hidden;rotatable=0;points=[[0,0.5],[1,0.5]];portConstraint=eastwest;" parent="MEC5jKvMAZbjHjUdtJt9-27" vertex="1">
          <mxGeometry y="52" width="190" height="26" as="geometry" />
        </mxCell>
        <mxCell id="MEC5jKvMAZbjHjUdtJt9-45" value="PostICR" style="swimlane;fontStyle=0;childLayout=stackLayout;horizontal=1;startSize=26;fillColor=none;horizontalStack=0;resizeParent=1;resizeParentMax=0;resizeLast=0;collapsible=1;marginBottom=0;align=center;" parent="1" vertex="1" collapsed="1">
          <mxGeometry x="640" y="786" width="80" height="26" as="geometry">
            <mxRectangle x="640" y="786" width="140" height="52" as="alternateBounds" />
          </mxGeometry>
        </mxCell>
        <mxCell id="MEC5jKvMAZbjHjUdtJt9-46" value="postId" style="text;strokeColor=none;fillColor=none;align=left;verticalAlign=top;spacingLeft=4;spacingRight=4;overflow=hidden;rotatable=0;points=[[0,0.5],[1,0.5]];portConstraint=eastwest;" parent="MEC5jKvMAZbjHjUdtJt9-45" vertex="1">
          <mxGeometry y="26" width="80" height="26" as="geometry" />
        </mxCell>
        <mxCell id="MEC5jKvMAZbjHjUdtJt9-49" value="StoryICR" style="swimlane;fontStyle=0;childLayout=stackLayout;horizontal=1;startSize=26;fillColor=none;horizontalStack=0;resizeParent=1;resizeParentMax=0;resizeLast=0;collapsible=1;marginBottom=0;align=center;" parent="1" vertex="1" collapsed="1">
          <mxGeometry x="800" y="786" width="80" height="26" as="geometry">
            <mxRectangle x="800" y="786" width="140" height="52" as="alternateBounds" />
          </mxGeometry>
        </mxCell>
        <mxCell id="MEC5jKvMAZbjHjUdtJt9-50" value="StoryId" style="text;strokeColor=none;fillColor=none;align=left;verticalAlign=top;spacingLeft=4;spacingRight=4;overflow=hidden;rotatable=0;points=[[0,0.5],[1,0.5]];portConstraint=eastwest;" parent="MEC5jKvMAZbjHjUdtJt9-49" vertex="1">
          <mxGeometry y="26" width="80" height="26" as="geometry" />
        </mxCell>
        <mxCell id="MEC5jKvMAZbjHjUdtJt9-53" value="CommentICR" style="swimlane;fontStyle=0;childLayout=stackLayout;horizontal=1;startSize=26;fillColor=none;horizontalStack=0;resizeParent=1;resizeParentMax=0;resizeLast=0;collapsible=1;marginBottom=0;align=center;" parent="1" vertex="1" collapsed="1">
          <mxGeometry x="960" y="786" width="110" height="26" as="geometry">
            <mxRectangle x="960" y="786" width="140" height="52" as="alternateBounds" />
          </mxGeometry>
        </mxCell>
        <mxCell id="MEC5jKvMAZbjHjUdtJt9-54" value="CommentId" style="text;strokeColor=none;fillColor=none;align=left;verticalAlign=top;spacingLeft=4;spacingRight=4;overflow=hidden;rotatable=0;points=[[0,0.5],[1,0.5]];portConstraint=eastwest;" parent="MEC5jKvMAZbjHjUdtJt9-53" vertex="1">
          <mxGeometry y="26" width="110" height="26" as="geometry" />
        </mxCell>
        <mxCell id="V9r57XBYMyIFjuuc4Z4z-4" value="Campaign" style="swimlane;fontStyle=0;childLayout=stackLayout;horizontal=1;startSize=26;fillColor=none;horizontalStack=0;resizeParent=1;resizeParentMax=0;resizeLast=0;collapsible=1;marginBottom=0;" vertex="1" parent="1">
          <mxGeometry x="650" y="960" width="190" height="130" as="geometry" />
        </mxCell>
        <mxCell id="V9r57XBYMyIFjuuc4Z4z-5" value="+List&lt;Advertisement&gt;" style="text;strokeColor=none;fillColor=none;align=left;verticalAlign=top;spacingLeft=4;spacingRight=4;overflow=hidden;rotatable=0;points=[[0,0.5],[1,0.5]];portConstraint=eastwest;" vertex="1" parent="V9r57XBYMyIFjuuc4Z4z-4">
          <mxGeometry y="26" width="190" height="26" as="geometry" />
        </mxCell>
        <mxCell id="V9r57XBYMyIFjuuc4Z4z-18" value="+exposureTime" style="text;strokeColor=none;fillColor=none;align=left;verticalAlign=top;spacingLeft=4;spacingRight=4;overflow=hidden;rotatable=0;points=[[0,0.5],[1,0.5]];portConstraint=eastwest;" vertex="1" parent="V9r57XBYMyIFjuuc4Z4z-4">
          <mxGeometry y="52" width="190" height="26" as="geometry" />
        </mxCell>
        <mxCell id="V9r57XBYMyIFjuuc4Z4z-26" value="+List&lt;CategoryOfUser&gt; &#xa;choosenGroups&#xa;" style="text;strokeColor=none;fillColor=none;align=left;verticalAlign=top;spacingLeft=4;spacingRight=4;overflow=hidden;rotatable=0;points=[[0,0.5],[1,0.5]];portConstraint=eastwest;" vertex="1" parent="V9r57XBYMyIFjuuc4Z4z-4">
          <mxGeometry y="78" width="190" height="52" as="geometry" />
        </mxCell>
        <mxCell id="V9r57XBYMyIFjuuc4Z4z-8" value="Advertisement" style="swimlane;fontStyle=0;childLayout=stackLayout;horizontal=1;startSize=26;fillColor=none;horizontalStack=0;resizeParent=1;resizeParentMax=0;resizeLast=0;collapsible=1;marginBottom=0;" vertex="1" parent="1">
          <mxGeometry x="945" y="1002" width="140" height="52" as="geometry" />
        </mxCell>
        <mxCell id="V9r57XBYMyIFjuuc4Z4z-9" value="+content : AC" style="text;strokeColor=none;fillColor=none;align=left;verticalAlign=top;spacingLeft=4;spacingRight=4;overflow=hidden;rotatable=0;points=[[0,0.5],[1,0.5]];portConstraint=eastwest;" vertex="1" parent="V9r57XBYMyIFjuuc4Z4z-8">
          <mxGeometry y="26" width="140" height="26" as="geometry" />
        </mxCell>
        <mxCell id="V9r57XBYMyIFjuuc4Z4z-12" value="AdvertisementContent" style="swimlane;fontStyle=0;childLayout=stackLayout;horizontal=1;startSize=26;fillColor=none;horizontalStack=0;resizeParent=1;resizeParentMax=0;resizeLast=0;collapsible=1;marginBottom=0;" vertex="1" parent="1">
          <mxGeometry x="1185" y="950" width="140" height="52" as="geometry" />
        </mxCell>
        <mxCell id="V9r57XBYMyIFjuuc4Z4z-13" value="+link" style="text;strokeColor=none;fillColor=none;align=left;verticalAlign=top;spacingLeft=4;spacingRight=4;overflow=hidden;rotatable=0;points=[[0,0.5],[1,0.5]];portConstraint=eastwest;" vertex="1" parent="V9r57XBYMyIFjuuc4Z4z-12">
          <mxGeometry y="26" width="140" height="26" as="geometry" />
        </mxCell>
        <mxCell id="V9r57XBYMyIFjuuc4Z4z-17" value="DisposableCampaign" style="swimlane;fontStyle=0;childLayout=stackLayout;horizontal=1;startSize=26;fillColor=none;horizontalStack=0;resizeParent=1;resizeParentMax=0;resizeLast=0;collapsible=1;marginBottom=0;" vertex="1" parent="1">
          <mxGeometry x="590" y="1134" width="140" height="52" as="geometry" />
        </mxCell>
        <mxCell id="V9r57XBYMyIFjuuc4Z4z-21" value="MultiUseCampagne" style="swimlane;fontStyle=0;childLayout=stackLayout;horizontal=1;startSize=30;fillColor=none;horizontalStack=0;resizeParent=1;resizeParentMax=0;resizeLast=0;collapsible=1;marginBottom=0;" vertex="1" parent="1">
          <mxGeometry x="790" y="1130" width="140" height="82" as="geometry" />
        </mxCell>
        <mxCell id="V9r57XBYMyIFjuuc4Z4z-22" value="+expiryTime" style="text;strokeColor=none;fillColor=none;align=left;verticalAlign=top;spacingLeft=4;spacingRight=4;overflow=hidden;rotatable=0;points=[[0,0.5],[1,0.5]];portConstraint=eastwest;" vertex="1" parent="V9r57XBYMyIFjuuc4Z4z-21">
          <mxGeometry y="30" width="140" height="26" as="geometry" />
        </mxCell>
        <mxCell id="V9r57XBYMyIFjuuc4Z4z-24" value="+frequency" style="text;strokeColor=none;fillColor=none;align=left;verticalAlign=top;spacingLeft=4;spacingRight=4;overflow=hidden;rotatable=0;points=[[0,0.5],[1,0.5]];portConstraint=eastwest;" vertex="1" parent="V9r57XBYMyIFjuuc4Z4z-21">
          <mxGeometry y="56" width="140" height="26" as="geometry" />
        </mxCell>
        <mxCell id="V9r57XBYMyIFjuuc4Z4z-29" style="edgeStyle=orthogonalEdgeStyle;rounded=0;orthogonalLoop=1;jettySize=auto;html=1;exitX=0;exitY=0.5;exitDx=0;exitDy=0;entryX=0.183;entryY=0.023;entryDx=0;entryDy=0;entryPerimeter=0;" edge="1" parent="1" source="V9r57XBYMyIFjuuc4Z4z-18" target="V9r57XBYMyIFjuuc4Z4z-17">
          <mxGeometry relative="1" as="geometry" />
        </mxCell>
        <mxCell id="V9r57XBYMyIFjuuc4Z4z-30" style="edgeStyle=orthogonalEdgeStyle;rounded=0;orthogonalLoop=1;jettySize=auto;html=1;exitX=1;exitY=0.5;exitDx=0;exitDy=0;entryX=0.64;entryY=-0.017;entryDx=0;entryDy=0;entryPerimeter=0;" edge="1" parent="1" source="V9r57XBYMyIFjuuc4Z4z-18" target="V9r57XBYMyIFjuuc4Z4z-21">
          <mxGeometry relative="1" as="geometry" />
        </mxCell>
        <mxCell id="V9r57XBYMyIFjuuc4Z4z-31" value="RegisteredUser" style="swimlane;fontStyle=0;childLayout=stackLayout;horizontal=1;startSize=26;fillColor=none;horizontalStack=0;resizeParent=1;resizeParentMax=0;resizeLast=0;collapsible=1;marginBottom=0;" vertex="1" parent="1">
          <mxGeometry x="100" y="240" width="140" height="104" as="geometry" />
        </mxCell>
        <mxCell id="V9r57XBYMyIFjuuc4Z4z-32" value="+List&lt;User&gt; following&#xa;" style="text;strokeColor=none;fillColor=none;align=left;verticalAlign=top;spacingLeft=4;spacingRight=4;overflow=hidden;rotatable=0;points=[[0,0.5],[1,0.5]];portConstraint=eastwest;" vertex="1" parent="V9r57XBYMyIFjuuc4Z4z-31">
          <mxGeometry y="26" width="140" height="26" as="geometry" />
        </mxCell>
        <mxCell id="V9r57XBYMyIFjuuc4Z4z-35" value="+List&lt;User&gt; followers" style="text;strokeColor=none;fillColor=none;align=left;verticalAlign=top;spacingLeft=4;spacingRight=4;overflow=hidden;rotatable=0;points=[[0,0.5],[1,0.5]];portConstraint=eastwest;" vertex="1" parent="V9r57XBYMyIFjuuc4Z4z-31">
          <mxGeometry y="52" width="140" height="26" as="geometry" />
        </mxCell>
        <mxCell id="V9r57XBYMyIFjuuc4Z4z-40" value="+List&lt;Campaing&gt;" style="text;strokeColor=none;fillColor=none;align=left;verticalAlign=top;spacingLeft=4;spacingRight=4;overflow=hidden;rotatable=0;points=[[0,0.5],[1,0.5]];portConstraint=eastwest;" vertex="1" parent="V9r57XBYMyIFjuuc4Z4z-31">
          <mxGeometry y="78" width="140" height="26" as="geometry" />
        </mxCell>
        <mxCell id="V9r57XBYMyIFjuuc4Z4z-37" style="edgeStyle=orthogonalEdgeStyle;rounded=0;orthogonalLoop=1;jettySize=auto;html=1;exitX=0;exitY=0.5;exitDx=0;exitDy=0;" edge="1" parent="1" source="V9r57XBYMyIFjuuc4Z4z-32" target="c_Kaz1U0MEZfS42UwjgD-3">
          <mxGeometry relative="1" as="geometry" />
        </mxCell>
        <mxCell id="V9r57XBYMyIFjuuc4Z4z-38" style="edgeStyle=orthogonalEdgeStyle;rounded=0;orthogonalLoop=1;jettySize=auto;html=1;exitX=1;exitY=0.5;exitDx=0;exitDy=0;" edge="1" parent="1" source="V9r57XBYMyIFjuuc4Z4z-32" target="c_Kaz1U0MEZfS42UwjgD-4">
          <mxGeometry relative="1" as="geometry" />
        </mxCell>
        <mxCell id="V9r57XBYMyIFjuuc4Z4z-43" value="Product" style="swimlane;fontStyle=0;childLayout=stackLayout;horizontal=1;startSize=26;fillColor=none;horizontalStack=0;resizeParent=1;resizeParentMax=0;resizeLast=0;collapsible=1;marginBottom=0;" vertex="1" parent="1">
          <mxGeometry x="460" y="1290" width="140" height="104" as="geometry" />
        </mxCell>
        <mxCell id="V9r57XBYMyIFjuuc4Z4z-44" value="+pathOfPicture" style="text;strokeColor=none;fillColor=none;align=left;verticalAlign=top;spacingLeft=4;spacingRight=4;overflow=hidden;rotatable=0;points=[[0,0.5],[1,0.5]];portConstraint=eastwest;" vertex="1" parent="V9r57XBYMyIFjuuc4Z4z-43">
          <mxGeometry y="26" width="140" height="26" as="geometry" />
        </mxCell>
        <mxCell id="V9r57XBYMyIFjuuc4Z4z-45" value="+amount" style="text;strokeColor=none;fillColor=none;align=left;verticalAlign=top;spacingLeft=4;spacingRight=4;overflow=hidden;rotatable=0;points=[[0,0.5],[1,0.5]];portConstraint=eastwest;" vertex="1" parent="V9r57XBYMyIFjuuc4Z4z-43">
          <mxGeometry y="52" width="140" height="26" as="geometry" />
        </mxCell>
        <mxCell id="V9r57XBYMyIFjuuc4Z4z-46" value="+price" style="text;strokeColor=none;fillColor=none;align=left;verticalAlign=top;spacingLeft=4;spacingRight=4;overflow=hidden;rotatable=0;points=[[0,0.5],[1,0.5]];portConstraint=eastwest;" vertex="1" parent="V9r57XBYMyIFjuuc4Z4z-43">
          <mxGeometry y="78" width="140" height="26" as="geometry" />
        </mxCell>
      </root>
    </mxGraphModel>
  </diagram>
</mxfile>
